<?xml version="1.0" encoding="UTF-8"?>
<!DOCTYPE svg PUBLIC "-//W3C//DTD SVG 1.1//EN" "http://www.w3.org/Graphics/SVG/1.1/DTD/svg11.dtd">
<!-- Creator: CorelDRAW X8 -->
<svg xmlns="http://www.w3.org/2000/svg" xml:space="preserve" width="6.4in" height="2.33333in" version="1.1" style="shape-rendering:geometricPrecision; text-rendering:geometricPrecision; image-rendering:optimizeQuality; fill-rule:evenodd; clip-rule:evenodd"
viewBox="0 0 6400 2333"
 xmlns:xlink="http://www.w3.org/1999/xlink">
 <defs>
   <clipPath id="id0">
    <path d="M0 0l6400 0 0 1846c-6,2 -12,5 -18,7 -200,75 -512,135 -773,163 -260,27 -468,23 -644,-6 -176,-29 -320,-82 -499,-97 -180,-16 -395,6 -572,64 -177,57 -317,150 -514,195 -197,44 -452,40 -717,-57 -266,-96 -543,-284 -793,-308 -250,-23 -474,119 -717,68 -242,-51 -503,-295 -722,-291 -163,2 -303,144 -431,282l0 -1866z"/>
   </clipPath>
 </defs>
 <g id="Layer_x0020_1">
  <metadata id="CorelCorpID_0Corel-Layer"/>
  <g style="clip-path:url(#id0)">
   <image x="0" y="0" width="6400" height="2333" xlink:href="header-bg_Images\header-bg_ImgID1.png"/>
  </g>
 </g>
</svg>
